HIERARCHY
ROOT Hips
{
  OFFSET 2.21136 48.6802 -74.5952
  CHANNELS 6 Xposition Yposition Zposition Zrotation Xrotation Yrotation
  JOINT ToSpine
  {
    OFFSET -2.69724 7.43032 -0.144315
    CHANNELS 3 Zrotation Xrotation Yrotation
    JOINT Spine
    {
      OFFSET -0.0310711 10.7595 1.96963
      CHANNELS 3 Zrotation Xrotation Yrotation
      JOINT Spine1
      {
        OFFSET 13.1342 3.43533 0.764692
        CHANNELS 3 Zrotation Xrotation Yrotation
        JOINT Neck
        {
          OFFSET 29.8703 7.82586 -0.130764
          CHANNELS 3 Zrotation Xrotation Yrotation
          JOINT Head
          {
            OFFSET 9.52751 0.295786 -0.907742
            CHANNELS 3 Zrotation Xrotation Yrotation
            End Site
            {
              OFFSET 16.4037 0.713936 2.7358
            }
          }
        }
        JOINT LeftShoulder
        {
          OFFSET 27.5574 4.95586 2.47156
          CHANNELS 3 Zrotation Xrotation Yrotation
          JOINT LeftArm
          {
            OFFSET 1.20734 -0.998971 20.1238
            CHANNELS 3 Zrotation Xrotation Yrotation
            JOINT LeftForeArm
            {
              OFFSET 26.8049 -0.0536703 -0.155908
              CHANNELS 3 Zrotation Xrotation Yrotation
              JOINT LeftHand
              {
                OFFSET 26.6817 0 0.320147
                CHANNELS 3 Zrotation Xrotation Yrotation
                End Site
                {
                  OFFSET 18.6119 0 0.382219
                }
              }
            }
          }
        }
        JOINT RightShoulder
        {
          OFFSET 27.5927 4.71444 -2.65209
          CHANNELS 3 Zrotation Xrotation Yrotation
          JOINT RightArm
          {
            OFFSET 2.83739 -1.17114 -18.7564
            CHANNELS 3 Zrotation Xrotation Yrotation
            JOINT RightForeArm
            {
              OFFSET 28.839 -0.0548439 1.22491
              CHANNELS 3 Zrotation Xrotation Yrotation
              JOINT RightHand
              {
                OFFSET 26.5114 0 -0.101894
                CHANNELS 3 Zrotation Xrotation Yrotation
                End Site
                {
                  OFFSET 18.2168 0 0
                }
              }
            }
          }
        }
      }
    }
  }
  JOINT LeftUpLeg
  {
    OFFSET -4.76168 -1.9167 -10.2353
    CHANNELS 3 Zrotation Xrotation Yrotation
    JOINT LeftLeg
    {
      OFFSET 2.55951 -42.0585 -8.02213
      CHANNELS 3 Zrotation Xrotation Yrotation
      JOINT LeftFoot
      {
        OFFSET 3.16357 -42.5282 -3.95426
        CHANNELS 3 Zrotation Xrotation Yrotation
        JOINT LeftToeBase
        {
          OFFSET 0.346054 -6.02161 12.8035
          CHANNELS 3 Zrotation Xrotation Yrotation
          End Site
          {
            OFFSET 0.134235 -1.35082 5.13018
          }
        }
      }
    }
  }
  JOINT RightUpLeg
  {
    OFFSET -4.94151 -1.41743 10.6446
    CHANNELS 3 Zrotation Xrotation Yrotation
    JOINT RightLeg
    {
      OFFSET -2.56294 -42.0364 -7.94377
      CHANNELS 3 Zrotation Xrotation Yrotation
      JOINT RightFoot
      {
        OFFSET -3.0952 -42.555 -4.02241
        CHANNELS 3 Zrotation Xrotation Yrotation
        JOINT RightToeBase
        {
          OFFSET -0.0828122 -6.13587 12.8035
          CHANNELS 3 Zrotation Xrotation Yrotation
          End Site
          {
            OFFSET -0.131328 -1.35082 5.13018
          }
        }
      }
    }
  }
}
MOTION
Frames:	15
Frame Time:	0.0333333
0.042271 96.197 -59.1433 59.9309 -19.9525 -17.6241 -70.1915 0 88.8779 120.739 71.4342 -28.7121 -0.71704 22.3005 4.86984 -131.267 40.8868 158.582 155.352 80.044 -106.636 0.401164 -14.3044 -25.7406 -62.6144 29.9503 -109.167 10.4266 1.6403 -80.5632 0.420956 0.000577675 0.358661 -2.2413 9.02919 38.9266 -97.6392 -2.85322 86.6104 1.13905 -1.53247 38.7575 0.58676 0.000331037 0.0646655 -45.5248 6.03543 103.906 -1.3905 29.9154 2.28354 -5.72933 -4.36597 0.091032 4.74076 -11.177 5.94979 -31.2036 -11.2122 79.1236 7.18584 24.5942 -23.0143 -6.32622 -4.2493 1.06326 0.851257 4.06212 -6.81831 
-0.0156274 96.1796 -60.066 61.2585 -20.3035 -16.1501 -70.1915 0 88.8779 119.518 71.6802 -27.6547 -0.458252 22.3615 4.95188 -130.079 40.5235 158.713 154.949 79.6361 -106.556 0.368502 -14.5573 -25.5625 -62.323 27.6049 -111.94 9.12678 1.21152 -81.9026 0.420956 0.000577675 0.358661 -2.26289 9.07128 39.0448 -99.9918 -0.767413 86.8296 0.407409 -0.597789 39.7752 0.58676 0.000331037 0.0646655 -46.9628 6.29401 103.175 -1.56816 29.3842 1.52597 -5.25852 -4.53084 0.0274576 5.15666 -12.0973 7.18453 -33.1115 -10.5729 79.6036 7.02893 23.0279 -24.7782 -6.29997 -3.28635 1.03872 0.322306 4.31117 -4.24464 
-0.208018 96.1011 -60.9834 62.2295 -20.514 -14.8385 -70.1915 0 88.8779 116.701 72.1397 -25.4517 -0.07199 22.2746 5.54489 -129.195 40.1433 159.004 155.054 79.2514 -107.284 0.370475 -14.5382 -25.5875 -63.017 25.2901 -114.622 10.2024 1.16517 -82.9322 0.420956 0.000577675 0.358661 -2.22709 9.19187 38.3025 -102.51 0.751899 87.0572 0.0662285 -0.176582 41.5242 0.58676 0.000331037 0.0646655 -47.9238 6.93464 103.11 -1.90935 29.3031 -0.678801 -4.87558 -5.4114 -0.114746 5.99796 -13.682 8.17731 -34.6848 -9.86563 79.9704 6.6287 21.2562 -26.5612 -6.427 -2.54827 1.03495 -0.243965 4.91988 -1.69881 
-0.4331 96.0408 -62.0068 63.2784 -19.9656 -13.481 -70.1915 0 88.8779 112.922 72.419 -22.6901 0.43498 21.8748 6.28748 -127.825 39.6636 158.415 155.828 79.1434 -108.39 0.37646 -14.6117 -25.1563 -63.7756 22.875 -117.965 10.6899 1.04137 -83.8661 0.420956 0.000577675 0.358661 -2.16288 9.18589 37.6092 -106.185 1.86141 87.6435 0.151318 -0.261189 42.8245 0.58676 0.000331037 0.0646655 -48.558 6.98461 102.499 -2.05985 29.2865 -2.91398 -4.51746 -7.11788 -0.34883 6.24992 -14.1913 9.04275 -35.7896 -9.95596 79.9649 6.41474 20.3592 -28.0121 -6.0363 -1.88295 0.975635 -0.91519 6.25498 0.7028 
-0.813396 96.0355 -62.9524 64.255 -19.4736 -12.2589 -70.1915 0 88.8779 110.815 72.5721 -21.6892 0.517688 21.6701 6.86013 -126.175 38.8871 157.05 157.514 79.0892 -110.167 0.423704 -14.5086 -24.3562 -64.6382 20.9055 -121.562 11.1752 0.915751 -84.7322 0.420956 0.000577675 0.358661 -2.12081 9.15998 37.2132 -110.061 3.10178 87.97 0.47808 -0.573288 44.8572 0.58676 0.000331037 0.0646655 -48.7776 6.99234 102.117 -2.13212 29.5304 -4.2406 -3.85657 -8.121 -0.506604 6.41006 -14.5211 9.86498 -36.6653 -9.93073 80.1011 6.0973 19.7882 -28.4189 -5.09291 -0.83115 0.834661 -1.0878 6.74793 1.23282 
-1.25888 95.972 -64.0364 64.9915 -18.8665 -11.4934 -70.1915 0 88.8779 110.179 72.5898 -22.2568 -0.0404853 21.563 7.31887 -124.68 38.4054 155.668 157.84 79.2084 -110.865 0.39585 -14.9094 -23.6556 -65.4633 19.6288 -125.003 10.3661 0.703854 -85.5024 0.420956 0.000577675 0.358661 -2.02957 9.08425 36.3966 -113.735 4.17775 87.8635 0.777166 -0.796761 47.5876 0.58676 0.000331037 0.0646655 -48.3064 6.16136 101.154 -1.93461 30.1549 -3.70551 -3.21427 -8.88105 -0.629372 5.53868 -13.1096 10.2333 -36.969 -11.152 79.3125 6.69185 20.1254 -27.1278 -4.09851 0.570467 0.653369 -0.990626 5.1106 1.82417 
-1.67358 96.0437 -65.0887 65.6334 -18.6249 -11.0901 -70.1915 0 88.8779 109.036 72.5743 -21.8722 0.245502 21.6317 6.78025 -123.546 37.5777 154.455 160.854 79.2289 -113.395 0.464708 -14.7672 -22.4756 -66.678 19.0904 -128.507 10.7805 0.569178 -86.4423 0.420956 0.000577675 0.358661 -2.0636 9.25267 36.331 -117.54 5.35227 88.7071 1.13423 -1.02386 50.3337 0.58676 0.000331037 0.0646655 -47.9428 5.3136 100.566 -1.81487 30.6514 -3.02364 -1.74413 -8.44343 -0.656707 5.05443 -12.2783 10.0702 -36.3668 -13.8862 75.2231 7.35623 23.2261 -18.55 -2.80955 3.01011 0.352579 -0.081504 0.433365 0.0878484 
-2.10833 96.0464 -65.9829 66.4434 -19.1464 -10.7386 -70.1915 0 88.8779 110.411 72.4823 -23.6647 0.270388 21.9246 6.18301 -122.35 36.8806 154.055 161.387 78.749 -112.989 0.485666 -14.7782 -21.9393 -67.9427 19.1606 -131.396 10.4638 0.326719 -87.4003 0.420956 0.000577675 0.358661 -2.07012 9.40807 36.0013 -120.937 6.06585 89.8441 0.596455 -0.52027 53.4415 0.58676 0.000331037 0.0646655 -48.0426 5.17592 100.65 -1.81108 31.4766 -2.8518 -1.44302 -9.16918 -0.745585 4.33349 -11.0649 10.0507 -35.3328 -16.2293 69.4228 5.69564 28.1439 -4.15843 -0.707974 4.34155 -0.0630361 0.440969 -2.43892 -1.24011 
-2.47064 96.0327 -66.5293 67.1224 -19.8785 -10.289 -70.1915 0 88.8779 110.551 72.7711 -24.2326 0.73121 22.3087 6.00395 -121.58 36.2823 153.562 163.222 78.6292 -114.562 0.491979 -14.8953 -21.455 -69.0203 18.9114 -133.999 9.87958 0.0132467 -88.6934 0.420956 0.000577675 0.358661 -2.07881 9.7254 35.3086 -124.618 6.22488 90.5987 1.84501 -1.28254 56.5372 0.58676 0.000331037 0.0646655 -48.3131 5.66431 101.135 -1.86681 32.1393 -2.9602 -1.53933 -9.77935 -0.796382 4.04395 -10.5444 9.85631 -34.3001 -16.5805 69.4078 3.79073 31.5832 6.99564 -2.13944 6.35226 0.045937 1.03261 -6.78416 -1.81309 
-2.69131 96.0327 -66.8646 67.5178 -20.0156 -9.66309 -70.1915 0 88.8779 109.677 72.9538 -23.6489 0.917117 22.3757 6.09006 -120.884 35.736 153.04 165.435 78.6484 -116.888 0.512797 -14.9767 -20.7537 -69.8342 19.73 -136.302 11.0649 0.0854711 -89.6723 0.420956 0.000577675 0.358661 -1.9339 9.45033 34.4105 -127.847 5.35482 90.9533 1.91745 -1.1409 60.4369 0.58676 0.000331037 0.0646655 -48.0233 6.17405 101.154 -1.84956 33.0316 -2.91703 -1.25049 -10.3491 -0.861834 3.60546 -9.68266 9.19013 -33.8335 -15.8289 73.5179 3.05849 32.7281 10.4223 -3.65819 7.12867 0.307918 1.46718 -7.39475 -6.16722 
-2.87083 95.8975 -66.9883 68.0674 -19.6498 -8.99696 -70.1915 0 88.8779 107.729 73.2564 -22.442 1.31907 22.2106 6.98272 -120.075 35.5566 152.581 166.566 78.8965 -118.017 0.432637 -15.6122 -20.9351 -70.5388 20.409 -138.198 11.0052 -0.368157 -90.4809 0.420956 0.000577675 0.358661 -1.76596 9.29204 32.9273 -131.292 4.68881 90.9134 3.72937 -1.85509 64.035 0.58676 0.000331037 0.0646655 -47.7234 6.5619 101.057 -1.89227 34.0768 -3.41677 -1.18631 -10.8925 -0.913712 3.15995 -8.81926 8.72476 -34.0974 -15.9249 76.6596 2.10006 32.2618 3.48353 -7.71668 7.97979 1.05086 0.853896 -5.52562 -2.02983 
-2.85215 95.9648 -67.0789 68.4683 -19.1103 -8.36972 -70.1915 0 88.8779 105.513 73.1573 -19.9117 1.74701 21.9687 6.59652 -119.157 35.3721 152.356 165.869 78.8672 -117.789 0.423222 -15.7086 -20.9039 -70.8622 20.6658 -140.036 10.9018 -0.344585 -91.1401 0.420956 0.000577675 0.358661 -1.83867 9.39159 33.5041 -133.17 5.50963 91.4282 3.93012 -1.67565 67.3004 0.58676 0.000331037 0.0646655 -47.7665 6.64985 100.59 -1.93217 34.31 -3.98553 -1.0576 -10.8303 -0.912124 3.07266 -8.74636 9.1289 -35.2716 -16.8139 77.9149 1.76888 29.8796 -4.07722 -8.60668 8.73048 1.23672 0.608231 0.911221 -3.95755 
-2.77564 95.8696 -66.9102 68.8676 -18.7608 -8.01348 -70.1915 0 88.8779 104.618 72.8985 -18.3258 1.88436 21.9737 5.30928 -118.198 35.0416 151.863 165.462 78.8295 -117.94 0.481767 -15.5186 -20.1388 -70.7229 21.1207 -142.223 12.1114 -0.423444 -91.1941 0.420956 0.000577675 0.358661 -1.88663 9.38178 34.0554 -135.016 5.80636 92.034 3.59337 -1.29681 70.5193 0.58676 0.000331037 0.0646655 -47.8539 6.65539 100.055 -1.95008 34.7914 -3.98079 -1.0305 -11.2317 -0.949605 3.03864 -8.71084 9.24459 -37.0831 -17.8659 78.1497 2.47852 26.7785 -7.64822 -6.96771 11.5687 0.848635 0.955009 1.51003 -6.58889 
-2.71644 95.69 -66.5733 69.2431 -18.9082 -7.9349 -70.1915 0 88.8779 104.034 73.0738 -17.6026 2.10303 22.254 4.76936 -117.73 34.6995 151.265 166.725 78.9523 -119.634 0.514037 -15.4261 -19.6661 -70.9319 21.5757 -144.232 12.0767 -0.386675 -91.0414 0.420956 0.000577675 0.358661 -1.84076 9.09994 34.2247 -137.063 5.78534 92.6174 3.87741 -1.1538 73.6781 0.58676 0.000331037 0.0646655 -48.0364 6.75835 99.5887 -2.01793 35.5052 -4.24964 -1.19744 -11.4607 -0.965122 3.16558 -9.09029 10.0902 -38.5325 -18.3395 78.2188 3.35828 25.0147 -7.81394 -4.08484 14.13 0.103748 0.986316 -1.67744 -5.64694 
-2.65471 95.4026 -65.9269 69.5937 -19.2924 -8.21192 -70.1915 0 88.8779 103.408 73.4169 -17.4525 2.09542 22.5972 4.70283 -117.52 34.4839 151.207 167.362 78.8956 -120.715 0.518097 -15.518 -19.3869 -71.1386 21.717 -145.702 11.8827 -0.395172 -90.9113 0.420956 0.000577675 0.358661 -1.88041 9.19982 34.4259 -138.858 5.94839 92.9117 4.73704 -1.13436 76.6489 0.58676 0.000331037 0.0646655 -48.3003 6.90135 99.4559 -2.04382 36.2672 -4.02011 -1.14308 -11.3668 -0.958168 3.57107 -9.78276 10.1122 -39.3878 -18.6257 77.6293 3.65944 24.955 -7.70036 -4.09186 14.4713 0.0775899 0.996084 -7.77506 -0.110995 
